<svg xmlns="http://www.w3.org/2000/svg" width="55.815" height="34.507"><g fill="#423e39" stroke="#423e39" stroke-width=".5"><path data-name="Контур 72" d="M25.594 12.98H9.104a.589.589 0 01-.589-.589V9.447a2.356 2.356 0 012.356-2.356h14.723a1.767 1.767 0 011.767 1.767v2.356a1.767 1.767 0 01-1.767 1.766zm-15.9-1.178h15.9a.589.589 0 00.589-.589V8.858a.589.589 0 00-.589-.589H10.871a1.178 1.178 0 00-1.178 1.178z"/><path data-name="Прямоугольник 1575" d="M38.718 5.842l1.031-.57 6.506 11.78-1.031.57z"/><path data-name="Прямоугольник 1576" d="M16.629 27.779h24.735v1.178H16.629z"/><path data-name="Контур 73" d="M16.76 26.163H.859a.589.589 0 01-.589-.73l.936-3.752a11.19 11.19 0 0110.872-8.475h13.516a.589.589 0 01.589.683l-1.319 7.861a1.767 1.767 0 001.767 2.055h6.372a1.767 1.767 0 001.684-1.225l2.656-8.292-2.868-9.664-2.132-3.2h-3.215V.25h3.534a.589.589 0 01.489.265l2.355 3.535a.589.589 0 01.077.159l2.945 9.924a.589.589 0 010 .347l-2.721 8.463a2.945 2.945 0 01-2.8 2.044h-6.395a2.945 2.945 0 01-2.9-3.428l1.178-7.173h-12.8a10.011 10.011 0 00-9.711 7.584l-.784 3.017H16.76z"/><path data-name="Контур 74" d="M47.728 34.257a7.067 7.067 0 117.063-7.067 7.067 7.067 0 01-7.063 7.067zm0-12.957a5.889 5.889 0 105.889 5.889 5.889 5.889 0 00-5.889-5.888z"/><path data-name="Контур 75" d="M47.725 30.723a3.534 3.534 0 113.534-3.534 3.534 3.534 0 01-3.534 3.534zm0-5.889a2.356 2.356 0 102.356 2.356 2.356 2.356 0 00-2.356-2.356z"/><path data-name="Контур 76" d="M40.869 6.139h-5.3a.589.589 0 01-.589-.588V2.017a.589.589 0 01.589-.589h5.3v1.178h-4.711v2.356h4.711z"/><path data-name="Контур 77" d="M10.283 34.257a7.067 7.067 0 01-6.8-8.993.589.589 0 01.592-.43h3.887a.589.589 0 01.471.942 2.356 2.356 0 103.746 0 .589.589 0 01.471-.942h3.887a.589.589 0 01.589.43 7.067 7.067 0 01-6.843 8.993zm-5.754-8.245a5.8 5.8 0 00-.124 1.178 5.89 5.89 0 1011.779 0 5.813 5.813 0 00-.124-1.178h-2.45a3.451 3.451 0 01.206 1.178 3.534 3.534 0 11-7.067 0 3.451 3.451 0 01.206-1.178z"/><path data-name="Контур 78" d="M10.279 30.723a3.534 3.534 0 01-3.534-3.534 3.5 3.5 0 01.724-2.12.589.589 0 01.476-.235h4.711a.589.589 0 01.471.236 3.5 3.5 0 01.689 2.12 3.534 3.534 0 01-3.537 3.533zm-2.032-4.711a2.3 2.3 0 00-.324 1.178 2.356 2.356 0 104.711 0 2.3 2.3 0 00-.324-1.178z"/><path data-name="Контур 79" d="M43.796 7.317c-1.908 0-4.123-1.543-4.123-3.534S41.887.25 43.796.25a.589.589 0 01.589.589v5.889a.589.589 0 01-.589.589zm-.589-5.825c-1.178.253-2.356 1.178-2.356 2.291s1.178 2.038 2.356 2.291z"/><path data-name="Контур 80" d="M36.963 28.003a10.6 10.6 0 0118.4-7.927.589.589 0 010 .8l-2.185 2.356-.86-.8 1.8-1.932a9.423 9.423 0 00-15.99 7.415z"/></g></svg>