<svg xmlns="http://www.w3.org/2000/svg" width="203.159" height="125"><g fill="#fff"><path data-name="Контур 72" d="M93.148 46.791H32.535a2.165 2.165 0 01-2.165-2.165V33.803a8.659 8.659 0 018.659-8.659h54.119a6.494 6.494 0 016.494 6.494v8.659a6.494 6.494 0 01-6.494 6.494zM34.7 42.462h58.448a2.165 2.165 0 002.165-2.165v-8.659a2.165 2.165 0 00-2.165-2.165H39.029a4.329 4.329 0 00-4.329 4.33z"/><path data-name="Прямоугольник 1575" d="M141.384 20.553l3.79-2.093 23.912 43.3-3.79 2.093z"/><path data-name="Прямоугольник 1576" d="M60.192 101.187h90.919v4.329H60.192z"/><path data-name="Контур 73" d="M60.676 95.249H2.228a2.165 2.165 0 01-2.169-2.685l3.442-13.789a41.13 41.13 0 0139.965-31.151h49.681a2.165 2.165 0 012.165 2.511l-4.849 28.9a6.494 6.494 0 006.496 7.555h23.423a6.494 6.494 0 006.191-4.5l9.763-30.48-10.545-35.526-7.832-11.755h-11.823V0h12.988a2.165 2.165 0 011.8.974l8.659 12.988a2.164 2.164 0 01.281.584l10.824 36.476a2.165 2.165 0 010 1.277l-10 31.107a10.824 10.824 0 01-10.3 7.512H96.87a10.824 10.824 0 01-10.672-12.6l4.329-26.367H43.466A36.8 36.8 0 007.771 79.826L4.89 90.916h55.786z"/><path data-name="Контур 74" d="M174.505 125a25.977 25.977 0 1125.977-25.977A25.977 25.977 0 01174.505 125zm0-47.624a21.647 21.647 0 1021.647 21.647 21.647 21.647 0 00-21.647-21.648z"/><path data-name="Контур 75" d="M174.504 112.011a12.988 12.988 0 1112.988-12.988 12.988 12.988 0 01-12.988 12.988zm0-21.647a8.659 8.659 0 108.659 8.659 8.659 8.659 0 00-8.659-8.66z"/><path data-name="Контур 76" d="M149.293 21.647h-19.482a2.165 2.165 0 01-2.165-2.165V6.494a2.165 2.165 0 012.165-2.165h19.482v4.329h-17.318v8.659h17.318z"/><path data-name="Контур 77" d="M36.864 125a25.977 25.977 0 01-24.981-33.056 2.165 2.165 0 012.165-1.581h14.287a2.165 2.165 0 011.732 3.464 8.659 8.659 0 1013.768 0 2.165 2.165 0 011.731-3.464h14.288a2.165 2.165 0 012.165 1.58A25.977 25.977 0 0136.864 125zM15.715 94.693a21.3 21.3 0 00-.455 4.329 21.648 21.648 0 0043.295 0 21.367 21.367 0 00-.455-4.329h-9.005a12.685 12.685 0 01.758 4.329 12.989 12.989 0 11-25.977 0 12.685 12.685 0 01.758-4.329z"/><path data-name="Контур 78" d="M36.864 112.011a12.988 12.988 0 01-12.988-12.988 12.859 12.859 0 012.663-7.793 2.165 2.165 0 011.731-.866h17.318a2.165 2.165 0 011.732.866 12.858 12.858 0 012.533 7.793 12.988 12.988 0 01-12.989 12.988zm-7.468-17.318a8.464 8.464 0 00-1.19 4.33 8.659 8.659 0 1017.318 0 8.443 8.443 0 00-1.191-4.329z"/><path data-name="Контур 79" d="M160.048 25.977c-7.014 0-15.153-5.672-15.153-12.989S153.034 0 160.048 0a2.165 2.165 0 012.165 2.165v21.647a2.165 2.165 0 01-2.165 2.165zm-2.165-21.409c-4.329.931-8.659 4.329-8.659 8.421s4.329 7.49 8.659 8.421z"/><path data-name="Контур 80" d="M134.934 102.012a38.965 38.965 0 0167.652-29.138 2.165 2.165 0 010 2.944l-8.031 8.659-3.169-2.944 6.624-7.1a34.636 34.636 0 00-58.768 27.253z"/></g></svg>