<svg xmlns="http://www.w3.org/2000/svg" width="50.56" height="36.5"><path d="M47.09 12.476a5.188 5.188 0 00-4.666-2.884h-8.758v-5.86A3.736 3.736 0 0029.934 0h-20.6a3.736 3.736 0 00-3.732 3.732V4.97h2.13V3.732a1.6 1.6 0 011.6-1.6h20.6a1.6 1.6 0 011.6 1.6v26.133H20.588a5.568 5.568 0 00-10.931 0H4.989a1.065 1.065 0 100 2.13h4.669a5.568 5.568 0 0010.931 0h14.428a5.568 5.568 0 0010.931 0H49.5a1.065 1.065 0 001.065-1.065V19.667a1.062 1.062 0 00-.112-.476zM15.122 34.37a3.44 3.44 0 113.44-3.44 3.44 3.44 0 01-3.44 3.44zm27.3-22.648a3.07 3.07 0 012.761 1.706l3.245 6.491v.732H33.666v-8.929zm-1.94 22.648a3.44 3.44 0 113.44-3.44 3.44 3.44 0 01-3.44 3.44zm5.465-4.505a5.568 5.568 0 00-10.931 0h-1.35v-7.084H48.43v7.084zM3 10.277a1.065 1.065 0 011.065-1.065H19.3a1.065 1.065 0 010 2.13H4.063A1.065 1.065 0 013 10.277zm-3 5.785a1.065 1.065 0 011.065-1.065H16.5a1.065 1.065 0 110 2.13H1.065A1.065 1.065 0 010 16.062zm17.567 5.784a1.065 1.065 0 01-1.067 1.065H5.549a1.065 1.065 0 010-2.13H16.5a1.065 1.065 0 011.065 1.065z" fill="#423e39"/></svg>