<svg xmlns="http://www.w3.org/2000/svg" width="49.8" height="50.467">
    <defs>
        <clipPath id="a">
            <path fill="#423e39" d="M0 0h49.8v50.467H0z"/>
        </clipPath>
    </defs>
    <g>
        <g clip-path="url(#a)" fill="#423e39">
            <path d="M49.063 4.226A6.849 6.849 0 0039.929 1.2a6.927 6.927 0 00-3.029 9.132c1.618 3.236 5.167 10.177 5.167 10.177a.991.991 0 001.774 0s4.176-8.194 5.168-10.177a6.492 6.492 0 00.052-6.106m-6.055 6.628A3.549 3.549 0 1146.558 7.3a3.52 3.52 0 01-3.55 3.549"/>
            <path d="M11.85 39.715a.782.782 0 10-1.409.679 16.049 16.049 0 001.618 2.766.744.744 0 00.626.313.847.847 0 00.47-.156.821.821 0 00.209-1.1 11.021 11.021 0 01-1.514-2.506"/>
            <path d="M18.322 46.866a12.606 12.606 0 01-2.4-1.723.78.78 0 00-.993 1.2 23.793 23.793 0 002.609 1.878.976.976 0 00.365.1.894.894 0 00.68-.366.81.81 0 00-.261-1.1"/>
            <path d="M10.65 36.01a17.858 17.858 0 01-.262-2.923.782.782 0 10-1.565 0 16.051 16.051 0 00.313 3.184.773.773 0 00.731.626h.156a.737.737 0 00.627-.887"/>
            <path d="M31.527 48.119a13.649 13.649 0 01-2.871.679.736.736 0 00-.627.886.791.791 0 00.783.679h.1a17.16 17.16 0 003.131-.783.754.754 0 00.469-.991.735.735 0 00-.99-.47"/>
            <path d="M24.793 48.954a17.35 17.35 0 01-2.87-.522.76.76 0 10-.418 1.461 16.277 16.277 0 003.184.575h.052a.79.79 0 00.782-.679.805.805 0 00-.73-.835"/>
            <path d="M43.008 31.417a.8.8 0 00-.782.783v.94a13.411 13.411 0 01-.157 2.035.845.845 0 00.678.888h.1a.785.785 0 00.783-.679 16.287 16.287 0 00.156-2.244v-.94a.768.768 0 00-.783-.783"/>
            <path d="M43.008 24.214a.8.8 0 00-.782.783v3.079a.783.783 0 101.565 0V25a.768.768 0 00-.783-.783"/>
            <path d="M42.121 38.463a.772.772 0 00-.992.417 17.22 17.22 0 01-1.305 2.609.76.76 0 00.261 1.044.561.561 0 00.418.1.765.765 0 00.679-.365 18.518 18.518 0 001.46-2.871.818.818 0 00-.521-.939"/>
            <path d="M37.319 44.57a15.282 15.282 0 01-2.3 1.826.714.714 0 00-.208 1.044.881.881 0 00.626.365.966.966 0 00.417-.1 18.048 18.048 0 002.506-1.984.758.758 0 000-1.095.661.661 0 00-1.044-.052"/>
            <path d="M9.5 0A9.511 9.511 0 000 9.5v11.84a9.5 9.5 0 0019 0V9.5A9.511 9.511 0 009.5 0m0 2A7.508 7.508 0 0117 9.5v6.945H2V9.5A7.508 7.508 0 019.5 2M2 21.34v-2.9h6.5v10.32A7.5 7.5 0 012 21.34m8.5 7.425v-10.32H17v2.9a7.5 7.5 0 01-6.5 7.425"/>
        </g>
    </g>
</svg>