<svg xmlns="http://www.w3.org/2000/svg" width="45" height="45"><defs><clipPath id="a"><path fill="#423e39" d="M0 0h45v45H0z"/></clipPath></defs><g><g transform="translate(0 -.001)" clip-path="url(#a)" fill="#423e39"><path d="M28.586 18.626H12.404l5.756-5.756a1.072 1.072 0 10-1.516-1.515l-7.582 7.582-.756.757.756.758 7.582 7.585a1.072 1.072 0 001.516-1.515l-5.756-5.754h16.182a5.525 5.525 0 110 11.05 1.071 1.071 0 000 2.143 7.668 7.668 0 100-15.335"/><path d="M22.5 45.001a22.5 22.5 0 1122.5-22.5 22.526 22.526 0 01-22.5 22.5m0-42.857a20.357 20.357 0 1020.357 20.357A20.38 20.38 0 0022.5 2.144"/></g></g></svg>