<svg xmlns="http://www.w3.org/2000/svg" width="57.924" height="30.205"><g data-name="Voucher Icon"><path data-name="Контур 47" d="M1.653.501A1.185 1.185 0 00.504 1.695v5.468a.743.743 0 00.709.741 6.736 6.736 0 010 13.459.743.743 0 00-.709.741v6.407a1.185 1.185 0 001.153 1.194h54.614a1.185 1.185 0 001.153-1.194V1.694A1.185 1.185 0 0056.271.5H1.653zm.332 1.485h16.719v2.22h1.485v-2.22h35.75V28.22H1.985v-5.476a8.212 8.212 0 007.147-8.112h0a8.213 8.213 0 00-7.147-8.107V1.986zm42.524 3.3a.743.743 0 00-.614.32l-12.88 18.07a.743.743 0 101.209.862l12.88-18.073a.743.743 0 00-.6-1.182zm-9.989.019a3.593 3.593 0 103.593 3.593 3.6 3.6 0 00-3.593-3.593zm0 1.485a2.108 2.108 0 11-2.107 2.107 2.1 2.1 0 012.107-2.11zm-15.816.389v2.971h1.485V7.179zm0 5.941v2.969h1.485v-2.971zm23.035 4.619a3.593 3.593 0 103.593 3.593 3.6 3.6 0 00-3.593-3.593zM18.704 19.06v2.971h1.485V19.06zm23.035.162a2.108 2.108 0 11-2.107 2.107 2.1 2.1 0 012.107-2.107zm-23.035 5.779v2.971h1.485v-2.971z" fill="#423e39" stroke="#423e39"/></g></svg>