<svg xmlns="http://www.w3.org/2000/svg" width="52.814" height="45"><path data-name="Контур 57" d="M15.09 29.21h21.826l6.144 7.114a1.988 1.988 0 003.5-1.293V29.21h1.35a4.922 4.922 0 004.9-4.9V4.9a4.922 4.922 0 00-4.9-4.9H15.09a4.922 4.922 0 00-4.9 4.9v19.4a4.957 4.957 0 004.9 4.91zM12.934 4.958a2.185 2.185 0 012.21-2.21h32.82a2.185 2.185 0 012.21 2.21v19.4a2.185 2.185 0 01-2.21 2.21h-2.695a1.334 1.334 0 00-1.347 1.347v5.228L38.641 27a1.531 1.531 0 00-1.024-.485H15.09a2.185 2.185 0 01-2.21-2.21V4.958zM15.9 37.186L9.754 44.3a2.005 2.005 0 01-1.509.7 3.154 3.154 0 01-.7-.108 1.908 1.908 0 01-1.294-1.832v-5.874H4.9a4.922 4.922 0 01-4.9-4.9V12.88a4.922 4.922 0 014.9-4.9 1.348 1.348 0 110 2.695 2.185 2.185 0 00-2.21 2.21v19.4a2.185 2.185 0 002.21 2.21h2.7a1.334 1.334 0 011.347 1.347v5.228l5.281-6.144a1.531 1.531 0 011.024-.485h19.832a1.348 1.348 0 010 2.695H15.9zm13.8-22.1a1.832 1.832 0 111.832 1.832 1.817 1.817 0 01-1.837-1.828zm-6.09 0a1.832 1.832 0 111.832 1.832A1.817 1.817 0 0123.6 15.09zm12.18 0a1.832 1.832 0 111.832 1.832 1.817 1.817 0 01-1.838-1.828z" fill="#423e39"/></svg>