<svg xmlns="http://www.w3.org/2000/svg" width="62.334" height="45"><path data-name="Deliv. icon" d="M58.056 15.381a6.4 6.4 0 00-5.756-3.555H41.5V4.601a4.606 4.606 0 00-4.6-4.6H11.512a4.606 4.606 0 00-4.6 4.6v1.526h2.626V4.601a1.978 1.978 0 011.975-1.975H36.9a1.978 1.978 0 011.975 1.975V36.82h-13.5a6.864 6.864 0 00-13.476 0H6.15a1.313 1.313 0 100 2.626h5.756a6.864 6.864 0 0013.476 0h17.789a6.864 6.864 0 0013.476 0h4.373a1.313 1.313 0 001.313-1.313V24.247a1.309 1.309 0 00-.139-.587zM18.644 42.374a4.241 4.241 0 114.241-4.241 4.241 4.241 0 01-4.241 4.241zM52.3 14.451a3.785 3.785 0 013.4 2.1l4 8v.9H41.5v-11zm-2.39 27.923a4.241 4.241 0 114.241-4.241 4.241 4.241 0 01-4.241 4.241zm6.738-5.554a6.864 6.864 0 00-13.476 0h-1.666v-8.734h18.2v8.734zM3.7 12.67a1.313 1.313 0 011.313-1.313H23.8a1.313 1.313 0 010 2.626H5.009A1.313 1.313 0 013.7 12.67zM0 19.802a1.313 1.313 0 011.313-1.316h19.032a1.313 1.313 0 110 2.626H1.313A1.313 1.313 0 010 19.802zm21.658 7.131a1.313 1.313 0 01-1.313 1.313h-13.5a1.313 1.313 0 010-2.626h13.5a1.313 1.313 0 011.313 1.313z" fill="#423e39"/></svg>