<svg xmlns="http://www.w3.org/2000/svg" width="203.159" height="125" viewBox="0 0 203.159 125">
  <g id="Scooter" transform="translate(-11.889 -32)">
    <path id="Контур_72" data-name="Контур 72" d="M79.548,67.647H18.935a2.165,2.165,0,0,1-2.165-2.165V54.659A8.659,8.659,0,0,1,25.429,46H79.548a6.494,6.494,0,0,1,6.494,6.494v8.659A6.494,6.494,0,0,1,79.548,67.647ZM21.1,63.318H79.548a2.165,2.165,0,0,0,2.165-2.165V52.494a2.165,2.165,0,0,0-2.165-2.165H25.429A4.329,4.329,0,0,0,21.1,54.659Z" transform="translate(25.489 11.144)" fill="#fff"/>
    <rect id="Прямоугольник_1575" data-name="Прямоугольник 1575" width="4.329" height="49.464" transform="translate(153.273 52.553) rotate(-28.91)" fill="#fff"/>
    <rect id="Прямоугольник_1576" data-name="Прямоугольник 1576" width="90.919" height="4.329" transform="translate(72.081 133.187)" fill="#fff"/>
    <path id="Контур_73" data-name="Контур 73" d="M63.417,127.249H4.969A2.165,2.165,0,0,1,2.8,124.564l3.442-13.789A41.13,41.13,0,0,1,46.207,79.624H95.888a2.165,2.165,0,0,1,2.165,2.511l-4.849,28.9A6.494,6.494,0,0,0,99.7,118.59h23.423a6.494,6.494,0,0,0,6.191-4.5l9.763-30.48L128.532,48.084,120.7,36.329H108.877V32h12.988a2.165,2.165,0,0,1,1.8.974l8.659,12.988a2.164,2.164,0,0,1,.281.584l10.824,36.476a2.165,2.165,0,0,1,0,1.277l-10,31.107a10.824,10.824,0,0,1-10.3,7.512H99.611a10.824,10.824,0,0,1-10.672-12.6l4.329-26.367H46.207a36.8,36.8,0,0,0-35.695,27.875l-2.881,11.09H63.417Z" transform="translate(9.148 0)" fill="#fff"/>
    <path id="Контур_74" data-name="Контур 74" d="M97.747,117.954a25.977,25.977,0,1,1,25.977-25.977A25.977,25.977,0,0,1,97.747,117.954Zm0-47.624a21.647,21.647,0,1,0,21.647,21.647A21.647,21.647,0,0,0,97.747,70.329Z" transform="translate(88.647 39.046)" fill="#fff"/>
    <path id="Контур_75" data-name="Контур 75" d="M90.758,97.977a12.988,12.988,0,1,1,12.988-12.988A12.988,12.988,0,0,1,90.758,97.977Zm0-21.647a8.659,8.659,0,1,0,8.659,8.659A8.659,8.659,0,0,0,90.758,76.329Z" transform="translate(95.635 46.034)" fill="#fff"/>
    <path id="Контур_76" data-name="Контур 76" d="M83.647,51.318H64.165A2.165,2.165,0,0,1,62,49.153V36.165A2.165,2.165,0,0,1,64.165,34H83.647v4.329H66.329v8.659H83.647Z" transform="translate(77.535 2.329)" fill="#fff"/>
    <path id="Контур_77" data-name="Контур 77" d="M33.74,108.637A25.977,25.977,0,0,1,8.759,75.581,2.165,2.165,0,0,1,10.924,74H25.211a2.165,2.165,0,0,1,1.732,3.464,8.659,8.659,0,1,0,13.768,0A2.165,2.165,0,0,1,42.442,74H56.73a2.165,2.165,0,0,1,2.165,1.58A25.977,25.977,0,0,1,33.74,108.637ZM12.591,78.33a21.3,21.3,0,0,0-.455,4.329,21.647,21.647,0,0,0,43.295,0,21.367,21.367,0,0,0-.455-4.329H45.971a12.685,12.685,0,0,1,.758,4.329,12.988,12.988,0,1,1-25.977,0,12.685,12.685,0,0,1,.758-4.329Z" transform="translate(15.013 48.363)" fill="#fff"/>
    <path id="Контур_78" data-name="Контур 78" d="M26.758,95.647A12.988,12.988,0,0,1,13.77,82.659a12.859,12.859,0,0,1,2.663-7.793A2.165,2.165,0,0,1,18.164,74H35.482a2.165,2.165,0,0,1,1.732.866,12.858,12.858,0,0,1,2.533,7.793A12.988,12.988,0,0,1,26.758,95.647ZM19.29,78.329A8.464,8.464,0,0,0,18.1,82.659a8.659,8.659,0,1,0,17.318,0,8.443,8.443,0,0,0-1.191-4.329Z" transform="translate(21.995 48.364)" fill="#fff"/>
    <path id="Контур_79" data-name="Контур 79" d="M85.153,57.977C78.139,57.977,70,52.305,70,44.988S78.139,32,85.153,32a2.165,2.165,0,0,1,2.165,2.165V55.812A2.165,2.165,0,0,1,85.153,57.977ZM82.988,36.568c-4.329.931-8.659,4.329-8.659,8.421s4.329,7.49,8.659,8.421Z" transform="translate(86.784 0)" fill="#fff"/>
    <path id="Контур_80" data-name="Контур 80" d="M65.548,101.826A38.965,38.965,0,0,1,133.2,72.688a2.165,2.165,0,0,1,0,2.944l-8.031,8.659L122,81.347l6.624-7.1A34.636,34.636,0,0,0,69.856,101.5Z" transform="translate(81.275 32.186)" fill="#fff"/>
  </g>
</svg>
