<svg xmlns="http://www.w3.org/2000/svg" width="55.815" height="34.507" viewBox="0 0 55.815 34.507">
  <g id="Scooter" transform="translate(-11.636 -31.75)">
    <path id="Контур_72" data-name="Контур 72" d="M33.849,51.889H17.359a.589.589,0,0,1-.589-.589V48.356A2.356,2.356,0,0,1,19.126,46H33.849a1.767,1.767,0,0,1,1.767,1.767v2.356A1.767,1.767,0,0,1,33.849,51.889Zm-15.9-1.178h15.9a.589.589,0,0,0,.589-.589V47.767a.589.589,0,0,0-.589-.589H19.126a1.178,1.178,0,0,0-1.178,1.178Z" transform="translate(3.381 -7.159)" fill="#423e39" stroke="#423e39" stroke-width="0.5"/>
    <rect id="Прямоугольник_1575" data-name="Прямоугольник 1575" width="1.178" height="13.457" transform="translate(50.354 37.592) rotate(-28.91)" fill="#423e39" stroke="#423e39" stroke-width="0.5"/>
    <rect id="Прямоугольник_1576" data-name="Прямоугольник 1576" width="24.735" height="1.178" transform="translate(28.265 59.529)" fill="#423e39" stroke="#423e39" stroke-width="0.5"/>
    <path id="Контур_73" data-name="Контур 73" d="M19.248,57.913H3.347a.589.589,0,0,1-.589-.73l.936-3.752a11.19,11.19,0,0,1,10.872-8.475H28.082a.589.589,0,0,1,.589.683L27.352,53.5a1.767,1.767,0,0,0,1.767,2.055h6.372a1.767,1.767,0,0,0,1.684-1.225l2.656-8.292-2.868-9.664-2.132-3.2H31.616V32h3.534a.589.589,0,0,1,.489.265L37.994,35.8a.589.589,0,0,1,.077.159l2.945,9.924a.589.589,0,0,1,0,.347l-2.721,8.463a2.945,2.945,0,0,1-2.8,2.044H29.1a2.945,2.945,0,0,1-2.9-3.428l1.178-7.173h-12.8a10.011,10.011,0,0,0-9.711,7.584l-.784,3.017H19.248Z" transform="translate(9.148 0)" fill="#423e39" stroke="#423e39" stroke-width="0.5"/>
    <path id="Контур_74" data-name="Контур 74" d="M78.837,80.134A7.067,7.067,0,1,1,85.9,73.067,7.067,7.067,0,0,1,78.837,80.134Zm0-12.957a5.889,5.889,0,1,0,5.889,5.889A5.889,5.889,0,0,0,78.837,67.178Z" transform="translate(-19.473 -14.127)" fill="#423e39" stroke="#423e39" stroke-width="0.5"/>
    <path id="Контур_75" data-name="Контур 75" d="M81.3,79.067a3.534,3.534,0,1,1,3.534-3.534A3.534,3.534,0,0,1,81.3,79.067Zm0-5.889a2.356,2.356,0,1,0,2.356,2.356A2.356,2.356,0,0,0,81.3,73.178Z" transform="translate(-21.939 -16.594)" fill="#423e39" stroke="#423e39" stroke-width="0.5"/>
    <path id="Контур_76" data-name="Контур 76" d="M67.889,38.711h-5.3A.589.589,0,0,1,62,38.123V34.589A.589.589,0,0,1,62.589,34h5.3v1.178H63.178v2.356h4.711Z" transform="translate(-15.384 -0.822)" fill="#423e39" stroke="#423e39" stroke-width="0.5"/>
    <path id="Контур_77" data-name="Контур 77" d="M14.84,83.423a7.067,7.067,0,0,1-6.8-8.993A.589.589,0,0,1,8.632,74h3.887a.589.589,0,0,1,.471.942,2.356,2.356,0,1,0,3.746,0A.589.589,0,0,1,17.207,74h3.887a.589.589,0,0,1,.589.43,7.067,7.067,0,0,1-6.843,8.993ZM9.086,75.178a5.8,5.8,0,0,0-.124,1.178,5.889,5.889,0,1,0,11.779,0,5.813,5.813,0,0,0-.124-1.178h-2.45a3.451,3.451,0,0,1,.206,1.178,3.534,3.534,0,1,1-7.067,0,3.451,3.451,0,0,1,.206-1.178Z" transform="translate(7.079 -17.416)" fill="#423e39" stroke="#423e39" stroke-width="0.5"/>
    <path id="Контур_78" data-name="Контур 78" d="M17.3,79.889a3.534,3.534,0,0,1-3.534-3.534,3.5,3.5,0,0,1,.724-2.12A.589.589,0,0,1,14.966,74h4.711a.589.589,0,0,1,.471.236,3.5,3.5,0,0,1,.689,2.12A3.534,3.534,0,0,1,17.3,79.889Zm-2.032-4.711a2.3,2.3,0,0,0-.324,1.178,2.356,2.356,0,1,0,4.711,0,2.3,2.3,0,0,0-.324-1.178Z" transform="translate(4.615 -17.416)" fill="#423e39" stroke="#423e39" stroke-width="0.5"/>
    <path id="Контур_79" data-name="Контур 79" d="M74.123,39.067c-1.908,0-4.123-1.543-4.123-3.534S72.214,32,74.123,32a.589.589,0,0,1,.589.589v5.889A.589.589,0,0,1,74.123,39.067Zm-.589-5.825c-1.178.253-2.356,1.178-2.356,2.291s1.178,2.038,2.356,2.291Z" transform="translate(-18.691 0)" fill="#423e39" stroke="#423e39" stroke-width="0.5"/>
    <path id="Контур_80" data-name="Контур 80" d="M65.47,71.364a10.6,10.6,0,0,1,18.4-7.927.589.589,0,0,1,0,.8l-2.185,2.356-.86-.8,1.8-1.932a9.423,9.423,0,0,0-15.99,7.415Z" transform="translate(-16.871 -11.611)" fill="#423e39" stroke="#423e39" stroke-width="0.5"/>
  </g>
</svg>
