<svg xmlns="http://www.w3.org/2000/svg" width="50.56" height="36.5" viewBox="0 0 50.56 36.5">
  <path id="Deliv._icon" data-name="Deliv. icon" d="M52.09,29.99a5.188,5.188,0,0,0-4.666-2.884H38.666v-5.86a3.736,3.736,0,0,0-3.732-3.732h-20.6a3.736,3.736,0,0,0-3.732,3.732v1.238h2.13V21.246a1.6,1.6,0,0,1,1.6-1.6h20.6a1.6,1.6,0,0,1,1.6,1.6V47.379H25.588a5.568,5.568,0,0,0-10.931,0H9.989a1.065,1.065,0,1,0,0,2.13h4.669a5.568,5.568,0,0,0,10.931,0H40.017a5.568,5.568,0,0,0,10.931,0H54.5a1.065,1.065,0,0,0,1.065-1.065V37.181a1.062,1.062,0,0,0-.112-.476ZM20.122,51.884a3.44,3.44,0,1,1,3.44-3.44A3.44,3.44,0,0,1,20.122,51.884Zm27.3-22.648a3.07,3.07,0,0,1,2.761,1.706l3.245,6.491v.732H38.666V29.236ZM45.482,51.884a3.44,3.44,0,1,1,3.44-3.44A3.44,3.44,0,0,1,45.482,51.884Zm5.465-4.505a5.568,5.568,0,0,0-10.931,0H38.666V40.295H53.43v7.084ZM8,27.791a1.065,1.065,0,0,1,1.065-1.065H24.3a1.065,1.065,0,0,1,0,2.13H9.063A1.065,1.065,0,0,1,8,27.791ZM5,33.576a1.065,1.065,0,0,1,1.065-1.065H21.5a1.065,1.065,0,1,1,0,2.13H6.065A1.065,1.065,0,0,1,5,33.576ZM22.567,39.36A1.065,1.065,0,0,1,21.5,40.425H10.549a1.065,1.065,0,0,1,0-2.13H21.5a1.065,1.065,0,0,1,1.065,1.065Z" transform="translate(-5 -17.514)" fill="#423e39"/>
</svg>
