<svg xmlns="http://www.w3.org/2000/svg" xmlns:xlink="http://www.w3.org/1999/xlink" width="49.8" height="50.467" viewBox="0 0 49.8 50.467">
  <defs>
    <clipPath id="clip-path">
      <rect id="Прямоугольник_1547" data-name="Прямоугольник 1547" width="49.8" height="50.467" transform="translate(0 0)" fill="#423e39"/>
    </clipPath>
  </defs>
  <g id="Сгруппировать_38" data-name="Сгруппировать 38" transform="translate(0 0)">
    <g id="Сгруппировать_37" data-name="Сгруппировать 37" clip-path="url(#clip-path)">
      <path id="Контур_27" data-name="Контур 27" d="M49.063,4.226A6.849,6.849,0,0,0,39.929,1.2,6.927,6.927,0,0,0,36.9,10.332c1.618,3.236,5.167,10.177,5.167,10.177a.991.991,0,0,0,1.774,0s4.176-8.194,5.168-10.177a6.492,6.492,0,0,0,.052-6.106m-6.055,6.628A3.549,3.549,0,1,1,46.558,7.3a3.52,3.52,0,0,1-3.55,3.549" fill="#423e39"/>
      <path id="Контур_28" data-name="Контур 28" d="M11.85,39.715a.782.782,0,1,0-1.409.679,16.049,16.049,0,0,0,1.618,2.766.744.744,0,0,0,.626.313.847.847,0,0,0,.47-.156.821.821,0,0,0,.209-1.1,11.021,11.021,0,0,1-1.514-2.506" fill="#423e39"/>
      <path id="Контур_29" data-name="Контур 29" d="M18.322,46.866a12.606,12.606,0,0,1-2.4-1.723.78.78,0,0,0-.993,1.2,23.793,23.793,0,0,0,2.609,1.878.976.976,0,0,0,.365.1.894.894,0,0,0,.68-.366.81.81,0,0,0-.261-1.1" fill="#423e39"/>
      <path id="Контур_30" data-name="Контур 30" d="M10.65,36.01a17.858,17.858,0,0,1-.262-2.923.782.782,0,1,0-1.565,0,16.051,16.051,0,0,0,.313,3.184.773.773,0,0,0,.731.626h.156a.737.737,0,0,0,.627-.887" fill="#423e39"/>
      <path id="Контур_31" data-name="Контур 31" d="M31.527,48.119a13.649,13.649,0,0,1-2.871.679.736.736,0,0,0-.627.886.791.791,0,0,0,.783.679h.1a17.16,17.16,0,0,0,3.131-.783.754.754,0,0,0,.469-.991.735.735,0,0,0-.99-.47" fill="#423e39"/>
      <path id="Контур_32" data-name="Контур 32" d="M24.793,48.954a17.35,17.35,0,0,1-2.87-.522.76.76,0,1,0-.418,1.461,16.277,16.277,0,0,0,3.184.575h.052a.79.79,0,0,0,.782-.679.805.805,0,0,0-.73-.835" fill="#423e39"/>
      <path id="Контур_33" data-name="Контур 33" d="M43.008,31.417a.8.8,0,0,0-.782.783v.94a13.411,13.411,0,0,1-.157,2.035.845.845,0,0,0,.678.888h.1a.785.785,0,0,0,.783-.679,16.287,16.287,0,0,0,.156-2.244V32.2a.768.768,0,0,0-.783-.783" fill="#423e39"/>
      <path id="Контур_34" data-name="Контур 34" d="M43.008,24.214a.8.8,0,0,0-.782.783v3.079a.783.783,0,1,0,1.565,0V25a.768.768,0,0,0-.783-.783" fill="#423e39"/>
      <path id="Контур_35" data-name="Контур 35" d="M42.121,38.463a.772.772,0,0,0-.992.417,17.22,17.22,0,0,1-1.305,2.609.76.76,0,0,0,.261,1.044.561.561,0,0,0,.418.1.765.765,0,0,0,.679-.365,18.518,18.518,0,0,0,1.46-2.871.818.818,0,0,0-.521-.939" fill="#423e39"/>
      <path id="Контур_36" data-name="Контур 36" d="M37.319,44.57a15.282,15.282,0,0,1-2.3,1.826.714.714,0,0,0-.208,1.044.881.881,0,0,0,.626.365.966.966,0,0,0,.417-.1,18.048,18.048,0,0,0,2.506-1.984.758.758,0,0,0,0-1.095.661.661,0,0,0-1.044-.052" fill="#423e39"/>
      <path id="Контур_37" data-name="Контур 37" d="M9.5,0A9.511,9.511,0,0,0,0,9.5V21.34a9.5,9.5,0,0,0,19,0V9.5A9.511,9.511,0,0,0,9.5,0m0,2A7.508,7.508,0,0,1,17,9.5v6.945H2V9.5A7.508,7.508,0,0,1,9.5,2M2,21.34v-2.9H8.5v10.32A7.5,7.5,0,0,1,2,21.34m8.5,7.425V18.445H17v2.9a7.5,7.5,0,0,1-6.5,7.425" fill="#423e39"/>
    </g>
  </g>
</svg>
