<svg xmlns="http://www.w3.org/2000/svg" xmlns:xlink="http://www.w3.org/1999/xlink" width="45" height="45" viewBox="0 0 45 45">
  <defs>
    <clipPath id="clip-path">
      <rect id="Прямоугольник_1532" data-name="Прямоугольник 1532" width="45" height="45" fill="#423e39"/>
    </clipPath>
  </defs>
  <g id="Сгруппировать_9" data-name="Сгруппировать 9" transform="translate(0 0)">
    <g id="Сгруппировать_8" data-name="Сгруппировать 8" transform="translate(0 -0.001)" clip-path="url(#clip-path)">
      <path id="Контур_14" data-name="Контур 14" d="M28.032,17.889H11.85l5.756-5.756a1.072,1.072,0,1,0-1.516-1.515L8.508,18.2h0l-.756.757.756.758h0L16.09,27.3a1.072,1.072,0,0,0,1.516-1.515L11.85,20.031H28.032a5.525,5.525,0,1,1,0,11.05,1.071,1.071,0,0,0,0,2.143,7.668,7.668,0,1,0,0-15.335" transform="translate(0.554 0.737)" fill="#423e39"/>
      <path id="Контур_15" data-name="Контур 15" d="M22.5,45A22.5,22.5,0,1,1,45,22.5,22.526,22.526,0,0,1,22.5,45m0-42.857A20.357,20.357,0,1,0,42.857,22.5,20.38,20.38,0,0,0,22.5,2.143" transform="translate(0 0.001)" fill="#423e39"/>
    </g>
  </g>
</svg>
