<svg xmlns="http://www.w3.org/2000/svg" width="44.003" height="60.002" viewBox="0 0 44.003 60.002">
  <g id="noun_payment_2401313" transform="translate(-73 46.002)">
    <g id="Outline_Icon" data-name="Outline Icon" transform="translate(63 -48)">
      <path id="Контур_8" data-name="Контур 8" d="M23.11,20.328a1,1,0,1,0,1.725-1.012L22.242,14.9a1,1,0,1,0-1.724,1.012Z" fill="#423e39"/>
      <path id="Контур_9" data-name="Контур 9" d="M22.374,26.722a1,1,0,0,0,.863.494.988.988,0,0,0,.5-.138A1,1,0,0,0,24.1,25.71l-5.224-8.9a1,1,0,1,0-1.725,1.012Z" fill="#423e39"/>
      <path id="Контур_10" data-name="Контур 10" d="M53.515,32.472,36.663,3.769a3.625,3.625,0,0,0-4.9-1.3L25.018,6.3h0L13.8,12.67a3.53,3.53,0,0,0-1.683,2.169,3.489,3.489,0,0,0,.365,2.689L16.9,25.039l-1.68,1.383A8.8,8.8,0,0,0,12,33.238v18.8a2.338,2.338,0,0,0-2,2.306V61a1,1,0,0,0,2,0V54.341A.342.342,0,0,1,12.343,54H33.656a.343.343,0,0,1,.344.341V61a1,1,0,0,0,2,0V54.341A2.345,2.345,0,0,0,33.656,52H33.5V49.687a9.823,9.823,0,0,0,3.792-3.893L52.2,37.33a3.53,3.53,0,0,0,1.683-2.169,3.494,3.494,0,0,0-.368-2.689ZM14.052,15.357a1.548,1.548,0,0,1,.739-.948L25.16,8.522,38.028,30.44a1,1,0,0,0,.864.5.985.985,0,0,0,.5-.138,1,1,0,0,0,.357-1.368L26.9,7.535l2.75-1.562L48.082,37.366l-2.751,1.562-3.147-5.36a1,1,0,1,0-1.725,1.014l3.132,5.334L33.247,45.788a1.612,1.612,0,0,1-2.185-.569l-3.99-6.8c-.02-.033-.051-.052-.073-.082a7.334,7.334,0,0,0-.548-.917l3.585-3.593a4.222,4.222,0,1,0-5.967-5.974l-2.015,2.02L14.21,16.517a1.5,1.5,0,0,1-.158-1.16ZM14,52V33.238a6.8,6.8,0,0,1,2.486-5.271l1.435-1.181L20.6,31.34l-4,4.011a1,1,0,1,0,1.416,1.412l7.476-7.493a2.265,2.265,0,0,1,3.135,0,2.233,2.233,0,0,1,0,3.149L24.4,36.654a1,1,0,0,0,0,1.408c.133.137,3.225,3.4-.089,7.822a1,1,0,0,0,1.6,1.2,9.485,9.485,0,0,0,1.755-3.713l1.679,2.86A3.6,3.6,0,0,0,32.422,48c-.208.12-.341.184-.346.187a1,1,0,0,0-.579.907V52ZM51.948,34.643a1.544,1.544,0,0,1-.739.948l-1.388.788L31.389,4.986l1.363-.774a1.616,1.616,0,0,1,2.186.569l16.852,28.7A1.508,1.508,0,0,1,51.948,34.643Z" fill="#423e39"/>
    </g>
  </g>
</svg>
