<svg xmlns="http://www.w3.org/2000/svg" width="62.334" height="45" viewBox="0 0 62.334 45">
  <path id="Deliv._icon" data-name="Deliv. icon" d="M63.056,32.895A6.4,6.4,0,0,0,57.3,29.34h-10.8V22.115a4.606,4.606,0,0,0-4.6-4.6H16.512a4.606,4.606,0,0,0-4.6,4.6v1.526h2.626V22.115a1.978,1.978,0,0,1,1.975-1.975H41.9a1.978,1.978,0,0,1,1.975,1.975V54.334h-13.5a6.864,6.864,0,0,0-13.476,0H11.15a1.313,1.313,0,1,0,0,2.626h5.756a6.864,6.864,0,0,0,13.476,0H48.171a6.864,6.864,0,0,0,13.476,0h4.373a1.313,1.313,0,0,0,1.313-1.313V41.761a1.309,1.309,0,0,0-.139-.587ZM23.644,59.888a4.241,4.241,0,1,1,4.241-4.241A4.241,4.241,0,0,1,23.644,59.888ZM57.3,31.965a3.785,3.785,0,0,1,3.4,2.1l4,8v.9h-18.2V31.965ZM54.91,59.888a4.241,4.241,0,1,1,4.241-4.241A4.241,4.241,0,0,1,54.91,59.888Zm6.738-5.554a6.864,6.864,0,0,0-13.476,0H46.506V45.6h18.2v8.734ZM8.7,30.184a1.313,1.313,0,0,1,1.313-1.313H28.8a1.313,1.313,0,0,1,0,2.626H10.009A1.313,1.313,0,0,1,8.7,30.184ZM5,37.316A1.313,1.313,0,0,1,6.313,36H25.345a1.313,1.313,0,1,1,0,2.626H6.313A1.313,1.313,0,0,1,5,37.316Zm21.658,7.131a1.313,1.313,0,0,1-1.313,1.313h-13.5a1.313,1.313,0,0,1,0-2.626h13.5a1.313,1.313,0,0,1,1.313,1.313Z" transform="translate(-5 -17.514)" fill="#423e39"/>
</svg>
