<svg xmlns="http://www.w3.org/2000/svg" width="57.924" height="30.205" viewBox="0 0 57.924 30.205">
  <g id="Voucher_Icon" data-name="Voucher Icon" transform="translate(0.5 0.5)">
    <g id="noun_voucher_2408738">
      <path id="Контур_47" data-name="Контур 47" d="M3.249,21.822A1.185,1.185,0,0,0,2.1,23.016v5.468a.743.743,0,0,0,.709.741,6.736,6.736,0,0,1,0,13.459.743.743,0,0,0-.709.741v6.407a1.185,1.185,0,0,0,1.153,1.194H57.867a1.185,1.185,0,0,0,1.153-1.194V23.015a1.185,1.185,0,0,0-1.153-1.194H3.249Zm.332,1.485H20.3v2.22h1.485v-2.22h35.75V49.541H3.581V44.065a8.212,8.212,0,0,0,7.147-8.112h0a8.213,8.213,0,0,0-7.147-8.107V23.307Zm42.524,3.3a.743.743,0,0,0-.614.32l-12.88,18.07a.743.743,0,1,0,1.209.862L46.7,27.786a.743.743,0,0,0-.6-1.182Zm-9.989.019a3.593,3.593,0,1,0,3.593,3.593,3.6,3.6,0,0,0-3.593-3.593Zm0,1.485a2.108,2.108,0,1,1-2.107,2.107A2.1,2.1,0,0,1,36.116,28.108ZM20.3,28.5v2.971h1.485V28.5Zm0,5.941V37.41h1.485V34.439Zm23.035,4.619a3.593,3.593,0,1,0,3.593,3.593,3.6,3.6,0,0,0-3.593-3.593ZM20.3,40.381v2.971h1.485V40.381Zm23.035.162a2.108,2.108,0,1,1-2.107,2.107A2.1,2.1,0,0,1,43.335,40.543ZM20.3,46.322v2.971h1.485V46.322Z" transform="translate(-2.096 -21.821)" fill="#423e39" stroke="#423e39" stroke-width="1"/>
    </g>
  </g>
</svg>
