<svg xmlns="http://www.w3.org/2000/svg" width="52.814" height="45" viewBox="0 0 52.814 45">
  <path id="Контур_57" data-name="Контур 57" d="M16.09,37.41H37.916l6.144,7.114a1.988,1.988,0,0,0,3.5-1.293V37.41H48.91a4.922,4.922,0,0,0,4.9-4.9V13.1a4.922,4.922,0,0,0-4.9-4.9H16.09a4.922,4.922,0,0,0-4.9,4.9v19.4A4.957,4.957,0,0,0,16.09,37.41ZM13.934,13.158a2.185,2.185,0,0,1,2.21-2.21h32.82a2.185,2.185,0,0,1,2.21,2.21v19.4a2.185,2.185,0,0,1-2.21,2.21H46.269a1.334,1.334,0,0,0-1.347,1.347v5.228L39.641,35.2a1.531,1.531,0,0,0-1.024-.485H16.09a2.185,2.185,0,0,1-2.21-2.21V13.158ZM16.9,45.386,10.754,52.5a2.005,2.005,0,0,1-1.509.7,3.154,3.154,0,0,1-.7-.108A1.908,1.908,0,0,1,7.251,51.26V45.386H5.9a4.922,4.922,0,0,1-4.9-4.9V21.08a4.922,4.922,0,0,1,4.9-4.9,1.347,1.347,0,1,1,0,2.695,2.185,2.185,0,0,0-2.21,2.21v19.4a2.185,2.185,0,0,0,2.21,2.21H8.6a1.334,1.334,0,0,1,1.347,1.347v5.228l5.281-6.144a1.531,1.531,0,0,1,1.024-.485H36.084a1.347,1.347,0,0,1,0,2.695H16.9Zm13.8-22.1a1.832,1.832,0,1,1,1.832,1.832A1.817,1.817,0,0,1,30.695,23.29Zm-6.09,0a1.832,1.832,0,1,1,1.832,1.832A1.817,1.817,0,0,1,24.6,23.29Zm12.18,0a1.832,1.832,0,1,1,1.832,1.832A1.817,1.817,0,0,1,36.784,23.29Z" transform="translate(-1 -8.2)" fill="#423e39"/>
</svg>
